<svg id="Capa_1" enable-background="new 0 0 512 512" height="512" viewBox="0 0 512 512" width="512" xmlns="http://www.w3.org/2000/svg"><g><path d="m15 301h17.98l24.491 172.364c3.147 22.026 22.298 38.636 44.548 38.636h307.962c22.25 0 41.401-16.61 44.549-38.647l24.49-172.353h17.98c8.284 0 15-6.716 15-15v-60c0-8.284-6.716-15-15-15h-80.844l-56.229-140.571c-3.077-7.691-11.805-11.434-19.498-8.356-7.692 3.077-11.433 11.806-8.356 19.498l51.771 129.429h-255.688l51.772-129.429c3.077-7.692-.665-16.421-8.356-19.498-7.691-3.076-16.421.665-19.498 8.356l-56.23 140.571h-80.844c-8.284 0-15 6.716-15 15v60c0 8.284 6.716 15 15 15zm409.831 168.121c-1.049 7.342-7.433 12.879-14.849 12.879h-307.963c-7.417 0-13.801-5.537-14.848-12.867l-23.889-168.133h385.437zm-394.831-228.121h452v30c-7.894 0-443.992 0-452 0z"/><path d="m256 0c-8.284 0-15 6.716-15 15v114.787l-4.394-4.394c-5.857-5.858-15.355-5.858-21.213 0s-5.858 15.355 0 21.213l30 30c2.929 2.93 6.768 4.394 10.607 4.394s7.678-1.464 10.606-4.393l30-30c5.858-5.858 5.858-15.355 0-21.213-5.857-5.858-15.355-5.858-21.213 0l-4.393 4.393v-114.787c0-8.284-6.716-15-15-15z"/><path d="m166 331c-8.284 0-15 6.716-15 15v91c0 8.284 6.716 15 15 15s15-6.716 15-15v-91c0-8.284-6.716-15-15-15z"/><path d="m256 331c-8.284 0-15 6.716-15 15v91c0 8.284 6.716 15 15 15s15-6.716 15-15v-91c0-8.284-6.716-15-15-15z"/><path d="m346 331c-8.284 0-15 6.716-15 15v91c0 8.284 6.716 15 15 15s15-6.716 15-15v-91c0-8.284-6.716-15-15-15z"/></g></svg>